<?xml version="1.0" encoding="UTF-8" standalone="no"?><svg xmlns="http://www.w3.org/2000/svg" xmlns:xlink="http://www.w3.org/1999/xlink" contentStyleType="text/css" height="444px" preserveAspectRatio="none" style="width:543px;height:444px;background:#FFFFFF;" version="1.1" viewBox="0 0 543 444" width="543px" zoomAndPan="magnify"><defs/><g><rect fill="#F1F1F1" height="36.2969" rx="12.5" ry="12.5" style="stroke:#181818;stroke-width:1.5;" width="99" x="10" y="202.9648"/><text fill="#000000" font-family="sans-serif" font-size="14" lengthAdjust="spacing" textLength="79" x="20" y="225.96">2025 Goals</text><rect fill="#F1F1F1" height="36.2969" rx="12.5" ry="12.5" style="stroke:#181818;stroke-width:1.5;" width="158" x="159" y="48.1484"/><text fill="#000000" font-family="sans-serif" font-size="14" lengthAdjust="spacing" textLength="138" x="169" y="71.1436">Game Development</text><rect fill="#F1F1F1" height="36.2969" rx="12.5" ry="12.5" style="stroke:#181818;stroke-width:1.5;" width="63" x="367" y="20"/><text fill="#000000" font-family="sans-serif" font-size="14" lengthAdjust="spacing" textLength="43" x="377" y="42.9951">Godot</text><path d="M317,66.2969 L327,66.2969 C342,66.2969 342,38.1484 357,38.1484 L367,38.1484 " fill="none" style="stroke:#181818;stroke-width:1.0;"/><rect fill="#F1F1F1" height="36.2969" rx="12.5" ry="12.5" style="stroke:#181818;stroke-width:1.5;" width="61" x="367" y="76.2969"/><text fill="#000000" font-family="sans-serif" font-size="14" lengthAdjust="spacing" textLength="41" x="377" y="99.292">LWJGL</text><path d="M317,66.2969 L327,66.2969 C342,66.2969 342,94.4453 357,94.4453 L367,94.4453 " fill="none" style="stroke:#181818;stroke-width:1.0;"/><path d="M109,221.1133 L119,221.1133 C134,221.1133 134,66.2969 149,66.2969 L159,66.2969 " fill="none" style="stroke:#181818;stroke-width:1.0;"/><rect fill="#F1F1F1" height="36.2969" rx="12.5" ry="12.5" style="stroke:#181818;stroke-width:1.5;" width="184" x="159" y="160.7422"/><text fill="#000000" font-family="sans-serif" font-size="14" lengthAdjust="spacing" textLength="164" x="169" y="183.7373">Immutable Linux Distros</text><rect fill="#F1F1F1" height="36.2969" rx="12.5" ry="12.5" style="stroke:#181818;stroke-width:1.5;" width="85" x="393" y="132.5938"/><text fill="#000000" font-family="sans-serif" font-size="14" lengthAdjust="spacing" textLength="65" x="403" y="155.5889">GNU Guix</text><path d="M343,178.8906 L353,178.8906 C368,178.8906 368,150.7422 383,150.7422 L393,150.7422 " fill="none" style="stroke:#181818;stroke-width:1.0;"/><rect fill="#F1F1F1" height="36.2969" rx="12.5" ry="12.5" style="stroke:#181818;stroke-width:1.5;" width="138" x="393" y="188.8906"/><text fill="#000000" font-family="sans-serif" font-size="14" lengthAdjust="spacing" textLength="118" x="403" y="211.8857">Fedora Sliverblue</text><path d="M343,178.8906 L353,178.8906 C368,178.8906 368,207.0391 383,207.0391 L393,207.0391 " fill="none" style="stroke:#181818;stroke-width:1.0;"/><path d="M109,221.1133 L119,221.1133 C134,221.1133 134,178.8906 149,178.8906 L159,178.8906 " fill="none" style="stroke:#181818;stroke-width:1.0;"/><rect fill="#F1F1F1" height="36.2969" rx="12.5" ry="12.5" style="stroke:#181818;stroke-width:1.5;" width="72" x="159" y="217.0391"/><text fill="#000000" font-family="sans-serif" font-size="14" lengthAdjust="spacing" textLength="52" x="169" y="240.0342">Pandoc</text><path d="M109,221.1133 L119,221.1133 C134,221.1133 134,235.1875 149,235.1875 L159,235.1875 " fill="none" style="stroke:#181818;stroke-width:1.0;"/><rect fill="#F1F1F1" height="36.2969" rx="12.5" ry="12.5" style="stroke:#181818;stroke-width:1.5;" width="41" x="159" y="329.6328"/><text fill="#000000" font-family="sans-serif" font-size="14" lengthAdjust="spacing" textLength="21" x="169" y="352.6279">API</text><rect fill="#F1F1F1" height="36.2969" rx="12.5" ry="12.5" style="stroke:#181818;stroke-width:1.5;" width="80" x="250" y="273.3359"/><text fill="#000000" font-family="sans-serif" font-size="14" lengthAdjust="spacing" textLength="60" x="260" y="296.3311">GraphQL</text><path d="M200,347.7813 L210,347.7813 C225,347.7813 225,291.4844 240,291.4844 L250,291.4844 " fill="none" style="stroke:#181818;stroke-width:1.0;"/><rect fill="#F1F1F1" height="36.2969" rx="12.5" ry="12.5" style="stroke:#181818;stroke-width:1.5;" width="82" x="250" y="329.6328"/><text fill="#000000" font-family="sans-serif" font-size="14" lengthAdjust="spacing" textLength="62" x="260" y="352.6279">REST API</text><path d="M200,347.7813 L210,347.7813 C225,347.7813 225,347.7813 240,347.7813 L250,347.7813 " fill="none" style="stroke:#181818;stroke-width:1.0;"/><rect fill="#F1F1F1" height="36.2969" rx="12.5" ry="12.5" style="stroke:#181818;stroke-width:1.5;" width="83" x="250" y="385.9297"/><text fill="#000000" font-family="sans-serif" font-size="14" lengthAdjust="spacing" textLength="63" x="260" y="408.9248">SOAP API</text><path d="M200,347.7813 L210,347.7813 C225,347.7813 225,404.0781 240,404.0781 L250,404.0781 " fill="none" style="stroke:#181818;stroke-width:1.0;"/><path d="M109,221.1133 L119,221.1133 C134,221.1133 134,347.7813 149,347.7813 L159,347.7813 " fill="none" style="stroke:#181818;stroke-width:1.0;"/><!--MD5=[612c8ced7733e5d3fc1311c8e14c9358]
@startmindmap
* 2025 Goals
** Game Development
*** Godot
*** LWJGL
** Immutable Linux Distros
*** GNU Guix
*** Fedora Sliverblue
** Pandoc
** API
*** GraphQL
*** REST API
*** SOAP API
@endmindmap

PlantUML version 1.2022.7(Mon Aug 22 13:01:30 EDT 2022)
(GPL source distribution)
Java Runtime: OpenJDK Runtime Environment
JVM: OpenJDK 64-Bit Server VM
Default Encoding: UTF-8
Language: en
Country: US
--></g></svg>