<?xml version="1.0" encoding="UTF-8" standalone="no"?><svg xmlns="http://www.w3.org/2000/svg" xmlns:xlink="http://www.w3.org/1999/xlink" contentStyleType="text/css" height="247px" preserveAspectRatio="none" style="width:355px;height:247px;background:#FFFFFF;" version="1.1" viewBox="0 0 355 247" width="355px" zoomAndPan="magnify"><defs/><g><rect fill="#F1F1F1" height="36.2969" rx="12.5" ry="12.5" style="stroke:#181818;stroke-width:1.5;" width="99" x="10" y="104.4453"/><text fill="#000000" font-family="sans-serif" font-size="14" lengthAdjust="spacing" textLength="79" x="20" y="127.4404">2025 Goals</text><rect fill="#F1F1F1" height="36.2969" rx="12.5" ry="12.5" style="stroke:#181818;stroke-width:1.5;" width="158" x="159" y="20"/><text fill="#000000" font-family="sans-serif" font-size="14" lengthAdjust="spacing" textLength="138" x="169" y="42.9951">Game Development</text><path d="M109,122.5938 L119,122.5938 C134,122.5938 134,38.1484 149,38.1484 L159,38.1484 " fill="none" style="stroke:#181818;stroke-width:1.0;"/><rect fill="#F1F1F1" height="36.2969" rx="12.5" ry="12.5" style="stroke:#181818;stroke-width:1.5;" width="184" x="159" y="76.2969"/><text fill="#000000" font-family="sans-serif" font-size="14" lengthAdjust="spacing" textLength="164" x="169" y="99.292">Immutable Linux Distros</text><path d="M109,122.5938 L119,122.5938 C134,122.5938 134,94.4453 149,94.4453 L159,94.4453 " fill="none" style="stroke:#181818;stroke-width:1.0;"/><rect fill="#F1F1F1" height="36.2969" rx="12.5" ry="12.5" style="stroke:#181818;stroke-width:1.5;" width="72" x="159" y="132.5938"/><text fill="#000000" font-family="sans-serif" font-size="14" lengthAdjust="spacing" textLength="52" x="169" y="155.5889">Pandoc</text><path d="M109,122.5938 L119,122.5938 C134,122.5938 134,150.7422 149,150.7422 L159,150.7422 " fill="none" style="stroke:#181818;stroke-width:1.0;"/><rect fill="#F1F1F1" height="36.2969" rx="12.5" ry="12.5" style="stroke:#181818;stroke-width:1.5;" width="41" x="159" y="188.8906"/><text fill="#000000" font-family="sans-serif" font-size="14" lengthAdjust="spacing" textLength="21" x="169" y="211.8857">API</text><path d="M109,122.5938 L119,122.5938 C134,122.5938 134,207.0391 149,207.0391 L159,207.0391 " fill="none" style="stroke:#181818;stroke-width:1.0;"/><!--MD5=[92434db10dd98712934404d6d4537614]
@startmindmap
* 2025 Goals
** Game Development
** Immutable Linux Distros
** Pandoc
** API
@endmindmap

PlantUML version 1.2022.7(Mon Aug 22 13:01:30 EDT 2022)
(GPL source distribution)
Java Runtime: OpenJDK Runtime Environment
JVM: OpenJDK 64-Bit Server VM
Default Encoding: UTF-8
Language: en
Country: US
--></g></svg>