<svg xmlns="http://www.w3.org/2000/svg" xmlns:xlink="http://www.w3.org/1999/xlink" contentStyleType="text/css" height="396px" preserveAspectRatio="none" style="width:89px;height:396px;background:#FFFFFF;" version="1.1" viewBox="0 0 89 396" width="89px" zoomAndPan="magnify"><defs/><g><rect fill="#F1F1F1" height="36.3441" rx="12.5" ry="12.5" style="stroke:#181818;stroke-width:0.5;" width="55.8923" x="16.814" y="11"/><text fill="#000000" font-family="sans-serif" font-size="12" lengthAdjust="spacing" textLength="35.8923" x="26.814" y="33.8281">INPUT</text><rect fill="#F1F1F1" height="36.3441" rx="12.5" ry="12.5" style="stroke:#181818;stroke-width:0.5;" width="57.5603" x="15.98" y="67.3441"/><text fill="#000000" font-family="sans-serif" font-size="12" lengthAdjust="spacing" textLength="37.5603" x="25.98" y="90.1722">reader</text><rect fill="#F1F1F1" height="36.3441" rx="12.5" ry="12.5" style="stroke:#181818;stroke-width:0.5;" width="40.9281" x="24.2961" y="123.6882"/><text fill="#000000" font-family="sans-serif" font-size="12" lengthAdjust="spacing" textLength="20.9281" x="34.2961" y="146.5163">AST</text><rect fill="#F1F1F1" height="36.3441" rx="12.5" ry="12.5" style="stroke:#181818;stroke-width:0.5;" width="46.3762" x="21.5721" y="180.0323"/><text fill="#000000" font-family="sans-serif" font-size="12" lengthAdjust="spacing" textLength="26.3762" x="31.5721" y="202.8604">filter</text><rect fill="#F1F1F1" height="36.3441" rx="12.5" ry="12.5" style="stroke:#181818;stroke-width:0.5;" width="40.9281" x="24.2961" y="236.3765"/><text fill="#000000" font-family="sans-serif" font-size="12" lengthAdjust="spacing" textLength="20.9281" x="34.2961" y="259.2045">AST</text><rect fill="#F1F1F1" height="36.3441" rx="12.5" ry="12.5" style="stroke:#181818;stroke-width:0.5;" width="53.5403" x="17.99" y="292.7206"/><text fill="#000000" font-family="sans-serif" font-size="12" lengthAdjust="spacing" textLength="33.5403" x="27.99" y="315.5487">writer</text><rect fill="#F1F1F1" height="36.3441" rx="12.5" ry="12.5" style="stroke:#181818;stroke-width:0.5;" width="67.5203" x="11" y="349.0647"/><text fill="#000000" font-family="sans-serif" font-size="12" lengthAdjust="spacing" textLength="47.5203" x="21" y="371.8928">OUTPUT</text><line style="stroke:#181818;stroke-width:1;" x1="44.7602" x2="44.7602" y1="47.3441" y2="67.3441"/><polygon fill="#181818" points="40.7602,57.3441,44.7602,67.3441,48.7602,57.3441,44.7602,61.3441" style="stroke:#181818;stroke-width:1;"/><line style="stroke:#181818;stroke-width:1;" x1="44.7602" x2="44.7602" y1="103.6882" y2="123.6882"/><polygon fill="#181818" points="40.7602,113.6882,44.7602,123.6882,48.7602,113.6882,44.7602,117.6882" style="stroke:#181818;stroke-width:1;"/><line style="stroke:#181818;stroke-width:1;" x1="44.7602" x2="44.7602" y1="160.0323" y2="180.0323"/><polygon fill="#181818" points="40.7602,170.0323,44.7602,180.0323,48.7602,170.0323,44.7602,174.0323" style="stroke:#181818;stroke-width:1;"/><line style="stroke:#181818;stroke-width:1;" x1="44.7602" x2="44.7602" y1="216.3765" y2="236.3765"/><polygon fill="#181818" points="40.7602,226.3765,44.7602,236.3765,48.7602,226.3765,44.7602,230.3765" style="stroke:#181818;stroke-width:1;"/><line style="stroke:#181818;stroke-width:1;" x1="44.7602" x2="44.7602" y1="272.7206" y2="292.7206"/><polygon fill="#181818" points="40.7602,282.7206,44.7602,292.7206,48.7602,282.7206,44.7602,286.7206" style="stroke:#181818;stroke-width:1;"/><line style="stroke:#181818;stroke-width:1;" x1="44.7602" x2="44.7602" y1="329.0647" y2="349.0647"/><polygon fill="#181818" points="40.7602,339.0647,44.7602,349.0647,48.7602,339.0647,44.7602,343.0647" style="stroke:#181818;stroke-width:1;"/><!--SRC=[i_Bq2mWDiUQoAafDJ4aj0Z8SWq7SjCoS4YHkUL4cXEiV6W9I3m00]--></g></svg>